<svg xmlns="http://www.w3.org/2000/svg" xmlns:xlink="http://www.w3.org/1999/xlink" width="1920" height="1080" viewBox="0 0 1920 1080">
  <defs>
    <clipPath id="clip-Web_1920_1">
      <rect width="1920" height="1080"/>
    </clipPath>
  </defs>
  <g id="Web_1920_1" data-name="Web 1920 – 1" clip-path="url(#clip-Web_1920_1)">
    <rect width="1920" height="1080" fill="#fff"/>
    <g id="Rectangle_1" data-name="Rectangle 1" fill="#fdd847" stroke="#707070" stroke-width="1">
      <rect width="1920" height="123" stroke="none"/>
      <rect x="0.5" y="0.5" width="1919" height="122" fill="none"/>
    </g>
    <text id="Login_Logout_If_Signed_In_My_Account_" data-name="Login / Logout
(If Signed In, My Account)" transform="translate(1677 68)" fill="#707070" font-size="20" font-family="SegoeUI, Segoe UI"><tspan x="0" y="0">Login / Logout</tspan><tspan x="0" y="27">(If Signed In, My Account)</tspan></text>
    <g id="Rectangle_2" data-name="Rectangle 2" transform="translate(33 32)" fill="#fff" stroke="#707070" stroke-width="1">
      <rect width="398" height="63" stroke="none"/>
      <rect x="0.5" y="0.5" width="397" height="62" fill="none"/>
    </g>
    <text id="Longhorn_Airlines_Logo" data-name="Longhorn Airlines Logo" transform="translate(74 75)" fill="#707070" font-size="27" font-family="SegoeUI, Segoe UI"><tspan x="0" y="0">Longhorn Airlines Logo</tspan></text>
    <g id="Rectangle_3" data-name="Rectangle 3" transform="translate(513 43)" fill="#fff" stroke="#707070" stroke-width="1">
      <rect width="1078" height="52" stroke="none"/>
      <rect x="0.5" y="0.5" width="1077" height="51" fill="none"/>
    </g>
    <text id="Navigation:_Book_A_Flight_Manage_Reservations" data-name="Navigation: Book A Flight, Manage Reservations" transform="translate(542 75)" fill="#707070" font-size="27" font-family="SegoeUI, Segoe UI"><tspan x="0" y="0">Navigation: Book A Flight, Manage Reservations</tspan></text>
    <g id="Rectangle_4" data-name="Rectangle 4" transform="translate(116 183)" fill="#fff" stroke="#707070" stroke-width="1">
      <rect width="936" height="608" stroke="none"/>
      <rect x="0.5" y="0.5" width="935" height="607" fill="none"/>
    </g>
    <g id="Rectangle_6" data-name="Rectangle 6" transform="translate(165 287)" fill="#fff" stroke="#707070" stroke-width="1">
      <rect width="226" height="82" stroke="none"/>
      <rect x="0.5" y="0.5" width="225" height="81" fill="none"/>
    </g>
    <g id="Rectangle_7" data-name="Rectangle 7" transform="translate(165 451)" fill="#fff" stroke="#707070" stroke-width="1">
      <rect width="226" height="109" stroke="none"/>
      <rect x="0.5" y="0.5" width="225" height="108" fill="none"/>
    </g>
    <g id="Rectangle_8" data-name="Rectangle 8" transform="translate(489 287)" fill="#fff" stroke="#707070" stroke-width="1">
      <rect width="214" height="82" stroke="none"/>
      <rect x="0.5" y="0.5" width="213" height="81" fill="none"/>
    </g>
    <g id="Rectangle_9" data-name="Rectangle 9" transform="translate(482 451)" fill="#fff" stroke="#707070" stroke-width="1">
      <rect width="229" height="109" stroke="none"/>
      <rect x="0.5" y="0.5" width="228" height="108" fill="none"/>
    </g>
    <g id="Rectangle_10" data-name="Rectangle 10" transform="translate(838 287)" fill="#fff" stroke="#707070" stroke-width="1">
      <rect width="153" height="82" stroke="none"/>
      <rect x="0.5" y="0.5" width="152" height="81" fill="none"/>
    </g>
    <g id="Ellipse_1" data-name="Ellipse 1" transform="translate(431 204)" fill="#fff" stroke="#707070" stroke-width="1">
      <ellipse cx="12.5" cy="14.5" rx="12.5" ry="14.5" stroke="none"/>
      <ellipse cx="12.5" cy="14.5" rx="12" ry="14" fill="none"/>
    </g>
    <g id="Ellipse_2" data-name="Ellipse 2" transform="translate(643 204)" fill="#fff" stroke="#707070" stroke-width="1">
      <ellipse cx="13.5" cy="14.5" rx="13.5" ry="14.5" stroke="none"/>
      <ellipse cx="13.5" cy="14.5" rx="13" ry="14" fill="none"/>
    </g>
    <text id="Roundtrip" transform="translate(261 233)" fill="#707070" font-size="27" font-family="SegoeUI, Segoe UI"><tspan x="0" y="0">Roundtrip</tspan></text>
    <text id="Single-Trip" transform="translate(500 233)" fill="#707070" font-size="27" font-family="SegoeUI, Segoe UI"><tspan x="0" y="0">Single-Trip</tspan></text>
    <text id="Departing_Airport" data-name="Departing 
Airport" transform="translate(192 328)" fill="#707070" font-size="27" font-family="SegoeUI, Segoe UI"><tspan x="0" y="0">Departing </tspan><tspan x="0" y="36">Airport</tspan></text>
    <text id="Arriving_Airport" data-name="Arriving 
Airport" transform="translate(192 487)" fill="#707070" font-size="27" font-family="SegoeUI, Segoe UI"><tspan x="0" y="0">Arriving </tspan><tspan x="0" y="36">Airport</tspan></text>
    <text id="Date" transform="translate(513 328)" fill="#707070" font-size="27" font-family="SegoeUI, Segoe UI"><tspan x="0" y="0">Date</tspan></text>
    <text id="Date-2" data-name="Date" transform="translate(500 487)" fill="#707070" font-size="27" font-family="SegoeUI, Segoe UI"><tspan x="0" y="0">Date</tspan></text>
    <text id="Passenger_Count" data-name="Passenger
Count" transform="translate(859 317)" fill="#707070" font-size="27" font-family="SegoeUI, Segoe UI"><tspan x="0" y="0">Passenger</tspan><tspan x="0" y="36">Count</tspan></text>
    <g id="Rectangle_11" data-name="Rectangle 11" transform="translate(1157 183)" fill="#fff" stroke="#707070" stroke-width="1">
      <rect width="703" height="869" stroke="none"/>
      <rect x="0.5" y="0.5" width="702" height="868" fill="none"/>
    </g>
    <text id="Mileage_Program_Promo" data-name="Mileage Program Promo" transform="translate(1321 571)" fill="#707070" font-size="27" font-family="SegoeUI, Segoe UI"><tspan x="0" y="0">Mileage Program Promo</tspan></text>
    <g id="Rectangle_12" data-name="Rectangle 12" transform="translate(116 848)" fill="#fff" stroke="#707070" stroke-width="1">
      <rect width="995" height="204" stroke="none"/>
      <rect x="0.5" y="0.5" width="994" height="203" fill="none"/>
    </g>
    <text id="Longhorn_Airlines_Mission_Statement" data-name="Longhorn Airlines Mission Statement" transform="translate(261 950)" fill="#707070" font-size="27" font-family="SegoeUI, Segoe UI"><tspan x="0" y="0">Longhorn Airlines Mission Statement</tspan></text>
    <g id="Rectangle_13" data-name="Rectangle 13" transform="translate(699 680)" fill="#fff" stroke="#707070" stroke-width="1">
      <rect width="292" height="78" stroke="none"/>
      <rect x="0.5" y="0.5" width="291" height="77" fill="none"/>
    </g>
    <text id="Submit" transform="translate(754 719)" fill="#707070" font-size="27" font-family="SegoeUI, Segoe UI"><tspan x="0" y="0">Submit</tspan></text>
  </g>
</svg>
