<?xml version="1.0" encoding="UTF-8" standalone="no"?>
<svg
   xmlns:dc="http://purl.org/dc/elements/1.1/"
   xmlns:cc="http://creativecommons.org/ns#"
   xmlns:rdf="http://www.w3.org/1999/02/22-rdf-syntax-ns#"
   xmlns:svg="http://www.w3.org/2000/svg"
   xmlns="http://www.w3.org/2000/svg"
   xmlns:sodipodi="http://sodipodi.sourceforge.net/DTD/sodipodi-0.dtd"
   xmlns:inkscape="http://www.inkscape.org/namespaces/inkscape"
   sodipodi:docname="drawing.svg"
   inkscape:version="1.0 (4035a4fb49, 2020-05-01)"
   id="svg8"
   version="1.1"
   viewBox="0 0 210 297"
   height="297mm"
   width="210mm">
  <defs
     id="defs2" />
  <sodipodi:namedview
     inkscape:window-maximized="1"
     inkscape:window-y="-8"
     inkscape:window-x="1912"
     inkscape:window-height="1017"
     inkscape:window-width="1920"
     showgrid="false"
     inkscape:document-rotation="0"
     inkscape:current-layer="layer2"
     inkscape:document-units="mm"
     inkscape:cy="636.32782"
     inkscape:cx="111.53968"
     inkscape:zoom="0.7"
     inkscape:pageshadow="2"
     inkscape:pageopacity="0.0"
     borderopacity="1.0"
     bordercolor="#666666"
     pagecolor="#ffffff"
     id="base" />
  <metadata
     id="metadata5">
    <rdf:RDF>
      <cc:Work
         rdf:about="">
        <dc:format>image/svg+xml</dc:format>
        <dc:type
           rdf:resource="http://purl.org/dc/dcmitype/StillImage" />
        <dc:title></dc:title>
      </cc:Work>
    </rdf:RDF>
  </metadata>
  <g
     id="layer1"
     inkscape:groupmode="layer"
     inkscape:label="Layer 1">
    <ellipse
       ry="79.941963"
       rx="27.78125"
       cy="157.0491"
       cx="93.54911"
       id="path10"
       style="fill:#ff0000;fill-rule:evenodd;stroke-width:0.264583" />
    <ellipse
       ry="11.150297"
       rx="61.799107"
       cy="141.93007"
       cx="92.415176"
       id="path12"
       style="fill:#ff0000;fill-rule:evenodd;stroke-width:0.264583" />
  </g>
  <g
     inkscape:label="seatlayer"
     id="layer2"
     inkscape:groupmode="layer">
    <g
       inkscape:label="#first"
       id="g0">
      <desc
         id="desc152">First Class Seats</desc>
      <ellipse
         style="fill:#000000;stroke-width:0.264583"
         id="1A"
         cx="85.800591"
         cy="105.83333"
         rx="6.4255953"
         ry="6.0476193"
         inkscape:label="#1A" />
      <ellipse
         ry="6.0476193"
         rx="6.4255953"
         cy="106.21132"
         cx="103.56548"
         id="1B"
         style="fill:#000000;stroke-width:0.264583"
         inkscape:transform-center-x="-1.1339286"
         inkscape:transform-center-y="15.875"
         inkscape:label="#1B" />
      <ellipse
         inkscape:transform-center-y="15.875"
         inkscape:transform-center-x="-1.1339286"
         style="fill:#000000;stroke-width:0.264583"
         id="2A"
         cx="85.422615"
         cy="121.70834"
         rx="6.4255953"
         ry="6.0476193"
         inkscape:label="#2A" />
      <ellipse
         inkscape:label="#2B"
         ry="6.0476193"
         rx="6.4255953"
         cy="122.46428"
         cx="103.94344"
         id="2B"
         style="fill:#000000;stroke-width:0.264583"
         inkscape:transform-center-x="-1.1339286"
         inkscape:transform-center-y="15.875" />
    </g>
    <g
       inkscape:label="#budget"
       id="g1">
      <desc
         id="desc144">Budget seats</desc>
      <path
         id="3A"
         style="fill:#000000;stroke-width:0.264583"
         inkscape:label="#3A"
         inkscape:transform-center-x="-1.1339286"
         inkscape:transform-center-y="15.875"
         d="m 79.94196,140.98512 a 6.4255953,6.0476193 0 0 1 -6.425595,6.04762 6.4255953,6.0476193 0 0 1 -6.425595,-6.04762 6.4255953,6.0476193 0 0 1 6.425595,-6.04762 6.4255953,6.0476193 0 0 1 6.425595,6.04762" />
      <path
         id="3B"
         style="fill:#000000;stroke-width:0.264583"
         inkscape:label="#3B"
         inkscape:transform-center-x="-1.1339286"
         inkscape:transform-center-y="15.875"
         d="m 92.793145,141.74106 a 6.4255953,6.0476193 0 0 1 -6.425596,6.04762 6.4255953,6.0476193 0 0 1 -6.425595,-6.04762 6.4255953,6.0476193 0 0 1 6.425595,-6.04762 6.4255953,6.0476193 0 0 1 6.425596,6.04762" />
      <ellipse
         inkscape:label="#3C"
         ry="6.0476193"
         rx="6.4255953"
         cy="141.74107"
         cx="101.86458"
         id="3C"
         style="fill:#000000;stroke-width:0.264583"
         inkscape:transform-center-x="-1.1339286"
         inkscape:transform-center-y="15.875" />
      <ellipse
         inkscape:transform-center-y="15.875"
         inkscape:transform-center-x="-1.1339286"
         style="fill:#000000;stroke-width:0.264583"
         id="3D"
         cx="113.95982"
         cy="141.74106"
         rx="6.4255953"
         ry="6.0476193"
         inkscape:label="#3D" />
      <path
         d="m 79.941961,156.48214 a 6.4255954,6.0476193 0 0 1 -6.425594,6.04762 6.4255954,6.0476193 0 0 1 -6.425596,-6.04762 6.4255954,6.0476193 0 0 1 6.425596,-6.04762 6.4255954,6.0476193 0 0 1 6.425594,6.04762"
         inkscape:transform-center-y="15.875"
         inkscape:transform-center-x="-1.1339286"
         inkscape:label="#4A"
         style="fill:#000000;stroke-width:0.264583"
         id="4A" />
      <path
         d="m 92.793143,157.23808 a 6.4255954,6.0476193 0 0 1 -6.42559,6.04762 6.4255954,6.0476193 0 0 1 -6.425598,-6.04762 6.4255954,6.0476193 0 0 1 6.425598,-6.04762 6.4255954,6.0476193 0 0 1 6.42559,6.04762"
         inkscape:transform-center-y="15.875"
         inkscape:transform-center-x="-1.1339286"
         inkscape:label="#4B"
         style="fill:#000000;stroke-width:0.264583"
         id="4B" />
      <ellipse
         inkscape:transform-center-y="15.875"
         inkscape:transform-center-x="-1.1339286"
         style="fill:#000000;stroke-width:0.264583"
         id="4C"
         cx="101.86458"
         cy="157.23808"
         rx="6.4255953"
         ry="6.0476193"
         inkscape:label="#4C" />
      <ellipse
         inkscape:label="#4D"
         ry="6.0476193"
         rx="6.4255953"
         cy="157.23807"
         cx="113.95982"
         id="4D"
         style="fill:#000000;stroke-width:0.264583"
         inkscape:transform-center-x="-1.1339286"
         inkscape:transform-center-y="15.875" />
      <path
         d="m 80.319937,170.84524 a 6.4255954,6.0476193 0 0 1 -6.425595,6.04762 6.4255954,6.0476193 0 0 1 -6.425595,-6.04762 6.4255954,6.0476193 0 0 1 6.425595,-6.04762 6.4255954,6.0476193 0 0 1 6.425595,6.04762"
         inkscape:transform-center-y="15.875"
         inkscape:transform-center-x="-1.1339286"
         inkscape:label="#5A"
         style="fill:#000000;stroke-width:0.264583"
         id="5A" />
      <path
         d="m 93.171122,171.60118 a 6.4255954,6.0476193 0 0 1 -6.425596,6.04762 6.4255954,6.0476193 0 0 1 -6.425595,-6.04762 6.4255954,6.0476193 0 0 1 6.425595,-6.04762 6.4255954,6.0476193 0 0 1 6.425596,6.04762"
         inkscape:transform-center-y="15.875"
         inkscape:transform-center-x="-1.1339286"
         inkscape:label="#5B"
         style="fill:#000000;stroke-width:0.264583"
         id="5B" />
      <ellipse
         inkscape:transform-center-y="15.875"
         inkscape:transform-center-x="-1.1339286"
         style="fill:#000000;stroke-width:0.264583"
         id="5C"
         cx="102.24256"
         cy="171.6012"
         rx="6.4255953"
         ry="6.0476193"
         inkscape:label="#5C" />
      <ellipse
         inkscape:label="#5D"
         ry="6.0476193"
         rx="6.4255953"
         cy="171.60118"
         cx="114.33781"
         id="5D"
         style="fill:#000000;stroke-width:0.264583"
         inkscape:transform-center-x="-1.1339286"
         inkscape:transform-center-y="15.875" />
    </g>
  </g>
</svg>
